<svg version="1.2" xmlns="http://www.w3.org/2000/svg" viewBox="0 0 35 32" width="35" height="32"><style>.a{fill:#fff}</style><path class="a" d="m34.7 9.3l-6 13c-0.4 1-1.5 1.7-2.7 1.7h-19c-1.7 0-3-1.3-3-3v-14.9l-3.6-3.5c-0.2-0.3-0.4-0.7-0.4-1.1 0-0.8 0.7-1.5 1.5-1.5 0.4 0 0.8 0.2 1.1 0.4l4.5 4.6h24.9c1.7 0 3 1.3 3 3q0 0.7-0.3 1.3zm-27.7 11.7h19l3.7-8h-22.7zm25-13h-25v2h24.1l0.9-2zm-24 18c1.7 0 3 1.3 3 3 0 1.7-1.3 3-3 3-1.7 0-3-1.3-3-3 0-1.7 1.3-3 3-3zm16 0c1.7 0 3 1.3 3 3 0 1.7-1.3 3-3 3-1.7 0-3-1.3-3-3 0-1.7 1.3-3 3-3z"/></svg>