<svg version="1.2" xmlns="http://www.w3.org/2000/svg" viewBox="0 0 400 400" width="400" height="400">
	<title>logo light-svg</title>
	<style>
		.s0 { fill: #000000 } 
	</style>
	<path id="Слой 2" class="s0" d="m224.7 83.3c0 0-16.7-3.7-26-3-9.6 0.7-13.7 6.3-13.7 6.3-10-23.6 30-52.6 30-52.6 0 0-20.3 30 9.7 49.3z"/>
	<path id="форма 1" class="s0" d="m220.5 6c20.5 1 17.7 16.8 5 19.5-50.5 17.5-52.5 59.8-52.5 59.8 0 0-15.2-23.6 0-40.3 10.8-11.9 25.3-20.2 53.3-28 4-7.5-13.3-11-13.3-11 0 0-13.5 1 7.5 0z"/>
	<path id="форма 2" fill-rule="evenodd" class="s0" d="m226.9 32.1c26.4 5.7 22.8 24.2 45.1 44.9-12-0.7-9.4 0.5-18.7 1.6-8.7 3.2-12.6 8-12.6 8 0 0-5.4-5-20.7-21.8-9.8-10.8-2.6-34.7 6.9-32.7zm1.4 28.2c0 0 10.4 9.7 21.4 8.7 4.7-0.5 5.8-7.3-2.7-16.4-5.3-5.7-11.7-16.3-19-13.6-10 3.6 0.3 21.3 0.3 21.3z"/>
	<path id="форма 3" fill-rule="evenodd" class="s0" d="m261 125c0 0 14 0 18-10-2.7-16.7 2.7-29.9 2.7-29.9 0 0-11.9 0.5-21.4 5.5-8.3 5.4-10.3 10.4-17 10.4-9.6 0-12.6-12.7-12.6-12.7 0 0 5 4.7 11.6 5 9.1 0.5 9.7-7.7 22.4-11 13.7-3.6 26-2 26-2 0 0-8.7 7.3-4.4 31-1.3 14-14.3 20-14.3 20 0 0 2.3 17.3 2 24.3-6.7 12-6.7 25.7-9.3 41.7-4.7 12-13.1 18.2-25.4 26.9 0.3 14.7-0.3 19.2-3.3 24.5-9.2 16.4-14.3 13.8-17.5 20.3-8.5 17-13.2 15.6-21.8 15.6-8 0-13.4-1-19-15.5-4.6-11.7-8-7.5-17.7-21.9-3.8-9.2-2-13.7-3.3-24.2-7.4-11.1-15.7-21-18.7-28.4-4.3-10.5-1.7-17-9.7-31.3-4.3-16.3 0-30.3 0-30.3 0 0-8-7.2-10-16.7-3-22.7-9-35-9-35 0 0 13.9-6.7 28.4-4.2 5.3 0.9 13.2 5.5 18 8.9 5.6 4 8-3.4 8-3.4 0 0 2 11.7-5.4 11.4-6-0.3-8.3-6.7-23-11-9.7-2.9-12.3-0.7-19.3 2 9.7 14.6 2.7 20 11.3 33 3.4 6.6 9.4 8 9.4 8l1 11.1c0 0-0.7 6.4 10 7.9 5.6 0.7 12-5.4 12-5.4 0 0 0 10.4-10 13.5-6.5 1.9-15.7-3.8-15.7-3.8 0 0-1.7 9 2.7 17 2.8 5.2 7 8.3 7 8.3 0 0-2.7 11.4 2.6 20.7 5.1 8.9 14.4 18.7 14.4 18.7l6.5-14c0 0-2.7-3.3-9.5-7-9-5-7.7-25.7-7.7-25.7 0 0-0.7 11.8 10.7 18.3 11 6.4 14.3 14.4 14.3 14.4 0 0-5.5 10.5-8.5 22.2-3.3 12.8-2.5 18.5 1 25.3 3.8 7.3 13.5 8.9 13.5 8.9 0 0 10.7 0 13.2-6.8 0.7-1.8-1.2-9.8-1.2-9.8 0 0-4.8-1.6-9.3 1.8-1.5-4.2 0.5-4.1 3.1-7.3-3.5-3-8.6-4.1-5.1-17.2 3.3 11.2 3.6 11.2 16 11.5 11 0.3 12 0.7 15.3-11.3 5 14.7-4.5 13.5-5.5 16.5 2 1.2 7.3 4 4.7 7.6-5.8-3-11-1.2-11-1.2 0 0-2.2 7.7-1.2 10.6 1.2 3.4 11 6.5 17.2 5.8 8.2-1 10.8-7.3 10.8-7.3 0 0 7.1-10.2 2.5-24.1-5-15-7.8-21.5-7.8-21.5 0 0 5.7-9.9 16.6-15.4 11.4-5.7 14.4-21.7 14.4-21.7 0 0-1 24-10 28.6-10.8 5.6-12.5 10-12.5 10l4.8 11.3c0 0 12.3-5.5 16-9.9 8.3-10.3 11.3-30 7.7-41.6 8-3.7 8-17.7 8-17.7 0 0-6.7 3.7-11 3-8.4-1.3-12.7-9-12.7-9 0 0 4.3 3 10.3 3 5.4 0.3 9.7-4.7 9.7-10.3m-66 143c11.7-0.3 14.8-6 14.7-15.7-8.4 1-15.9-5.5-15.9-5.5 0 0-4.6 5.7-15.6 5.5 1.6 12.5 6 16 16.8 15.7z"/>
	<path id="форма 4" class="s0" d="m313 185.5c8.5 39.5-28 58.8-28 58.8 0 0-4.5 11.4-6 25.7-3.3 9-11 10.6-11 10.6 0 0 2.3 9.7-7 23.4-18 18-22.7 31.6-22.7 31.6 0 0-4.7-14.2-2.3-18.6 6.3-11.7 13-11 19.7-20.4 13.6-20.3 3.3-41.3 3.3-41.3 6 4 11 17 11 17 9-2.7 0-26.3 0-26.3 0 0 28.2-19.5 27.7-58-16.5-64-7.7-73-7.7-73 0 0-1.5 18 23 70.5z"/>
	<path id="форма 5" class="s0" d="m187.8 378.7c-1.5-4.7-1-9.5 1-16-3-6.1-7.8-4.7-7.8-4.7 0 0 4.2-2.5 9.2 0.8 4.8-4 9.8-2 9.8-2 0 0-6.6 1.5-8 6-0.7 2.2-1.7 8.5 0.5 14.7 1.8 5 21.8 5.5 23.7-0.5 1.7-5.6-2-14.5-2-14.5-2.8-7.7-8.9-8.3-8.9-8.3 0 0 3-1.8 9.7 1.6 3.2-4.4 7.9-3.8 7.9-3.8 0 0-5.7 2.4-5.1 7.2 1.2 3.8 3.4 11.1 3.4 17.1 0 0 18.6 3 16.5-16-1.2-9.9-6.5-13.8-12.5-13.8 0 0 2.5-1.3 6.1-1.2 0.7-2.1 3.7-3.3 3.7-3.3 0 0-2.3 4.2 3.7 7 1.5 0.7 1.3-0.5 2.3-3.3 0.9-2.7 1-8.7 1-8.7 0 0 4.3 16.3-1 15l1 15c0 0-0.7 8.3-7.3 11.6-7.2 3.7-14.7 1.4-14.7 1.4 0 0-4.3 5-14 6-6 0.6-15-4-15-4 0 0-9.3 2.6-14 1.3-4.7-1.3-9-6.7-10-16.3-1.6-15.5 13-35 13-35 0 0-3-10 5.3-24.7 14-12.7 65-39.7 62.7-79 28.3-17.3 27-61.3 27-61.3 0 0 11.7 45-19 63-1 35.6-9.7 57.3-52 72.3-6.3 12.3 1 12.8 6 12.7 23-0.4 13.7-17.4 13.7-17.4 0 0 11.2 2.8 7 17.7-4.7 16.3-30.7 9.7-30.7 9.7 0 0 0 9-14 18-9.1 5.9-16.2 15.7-15 25.3 0.6 5 3 14.9 16.8 10.4z"/>
	<path id="форма 6" class="s0" d="m203 362c0 0 5 0.7 5 3 0.2 10.6-2.6 29.6-2.6 29.6 0 0-7-20.8-6.6-29 0.1-2 4.2-3.6 4.2-3.6z"/>
	<path id="форма 7" class="s0" d="m224 361c0 0 5.9-4.2 8-0.2 8.4 15.8-2.8 25.8-2.8 25.8 0 0 3.6-14.2-1.8-18.4-5.2-0.2-3.4-7.2-3.4-7.2z"/>
	<path id="форма 8" class="s0" d="m181.6 370.4c-3.4 6 2.4 20.2 2.4 20.2 0 0-12.1-10.7-10.2-23.2 1-6.6 7.2-4.4 7.2-4.4 0 0 4.6 4 0.6 7.4z"/>
	<path id="Слой 4" class="s0" d="m264.3 93.7c-0.1 0 2.5-6.2 9.7-2.7 3 1.5 3.2 7.7-1 11.2-2.9 2.4-13.3-0.9-12.3 6.3 1.3 8.7 11.3 3.5 11.3 3.5 0 0-0.5 6-9 6-5.8 0-10.5-2.6-9.8-9.5 1-8.8 14.5-8.8 18.5-10 2.3-7-7.5-4.8-7.5-4.8z"/>
	<path id="форма 9" class="s0" d="m135.5 89.5c0 0-7.8-0.3-7.5 4.7 0.2 3.1 7.3 2.8 15.3 6.8 6.4 3.2 9.4 12.7 0.4 17.5-12.6 6.6-15-10.3-15-10.3 0 0 8.8 9.6 13.3 5 6.4-6.7-3.8-9.2-13.5-12.5-3.3-1.1-7.5-5-4.5-10.2 3.2-5.6 11.5-1 11.5-1z"/>
	<path id="форма 10" class="s0" d="m136 200c0 0 3.5 14 15.5 23.5-4 30 21.5 52.5 21.5 52.5 0 0-26.5-10.5-31.5-23-4.3-10.7-5-17.5-2-30.5-6-7.5-3.5-22.5-3.5-22.5z"/>
	<path id="форма 11" class="s0" d="m229 142c8.7 0.6 14 6 14 6 0 0-5.9-3.4-13.7 1.6-7.6 5-11.3 16-11.3 16 0 0-2.9-13.5 5-26.3 12-19.3 1-35.3 1-35.3 0 0 15 17 5 38z"/>
	<path id="форма 12" class="s0" d="m182.7 104.3c0 0-11.8 18.3 1.6 41.3 7 12 2.4 21.7 2.4 21.7 0 0-4-10-8.4-14-5.1-4.7-14.3-6.7-14.3-6.7 0 0 5-3.6 13.3-1-11.6-21.6 5.4-41.3 5.4-41.3z"/>
	<path id="форма 13" fill-rule="evenodd" class="s0" d="m176.3 179.8c-3-0.5-9.8 0-14.6-4.6-4.2-4.1-4.5-11.9-5.5-13.5-1.4-2.3-2.2-2.7-2.2-2.7 0 0 13.8-1.9 19.7 3.3 6.6 6 6.3 19.7 6.3 19.7 0 0-1-1.7-3.7-2.2zm-0.3-3.8c0 0 1.1-7.1-4.3-10.8-6.9-4.7-12.4-3.2-12.4-3.2 0 0 0.9 8 5 11.5 4.6 3.9 11.7 2.5 11.7 2.5z"/>
	<path id="форма 14" fill-rule="evenodd" class="s0" d="m220 184c0 0 0.2-14.9 6.7-19.8 5.9-4.6 19.3-2.2 19.3-2.2 0 0-0.2 0.2-1.5 2.7-1.4 2.5-0.3 8.6-6.5 13-6.5 4.5-11.3 2.3-14.2 3.3-2.2 0.8-3.8 3-3.8 3zm16.5-9.3c3.8-2.9 4.5-10.7 4.5-10.7 0 0-9.3-0.5-13.3 3.3-4 3.8-3.7 10.7-3.7 10.7 0 0 8.5-0.4 12.5-3.3z"/>
	<path id="форма 15" class="s0" d="m172.3 164.4c2.2 1.5 2 6.3 0.1 7.3-2.5 1.5-4.6 1.6-6.2-0.4-2-2.4-1.8-5.8-0.3-7.1 1.3-1 3.7-1.8 6.4 0.2zm54.7 7.9c-1.7-2.3-0.4-5.8 1.3-6.9 2-1.4 4.7-0.6 5.9 1 1.6 2 0.6 5-0.8 6.5-1.3 1.3-4.9 1.3-6.4-0.6z"/>
</svg>