<svg version="1.2" xmlns="http://www.w3.org/2000/svg" viewBox="0 0 32 32" width="32" height="32"><style>.a{fill:#fff}</style><path class="a" d="m23.5 32q-1.2 0-2.4-0.4c-9.8-3.5-17.5-11.4-20.7-21.3-1-2.9 0-6.2 2.5-8.1l1.6-1.2c0.8-0.6 1.9-1 3-1 1.9 0 3.6 1 4.4 2.7l2.7 5.2q0.4 0.7 0.4 1.6c0 0.9-0.3 1.7-0.9 2.4l-0.6 0.6c-0.5 0.6-0.7 1.4-0.3 2.2 0.9 1.7 2.3 3.2 4.1 4.1 0.7 0.3 1.6 0.2 2.2-0.3l0.6-0.6c1.1-1 2.7-1.2 4-0.5l5.2 2.6c1.7 0.9 2.7 2.6 2.7 4.5 0 1.3-0.5 2.5-1.4 3.5l-1.8 1.8c-1.4 1.4-3.3 2.2-5.3 2.2zm-16-29q-0.7 0-1.2 0.4l-1.6 1.2c-1.5 1.1-2.1 3.1-1.5 4.8 2.9 9 10 16.2 18.9 19.4 1.5 0.5 3.4 0.1 4.5-1.1l1.8-1.8c0.4-0.4 0.6-0.9 0.6-1.4 0-0.8-0.4-1.5-1.1-1.8l-5.2-2.7c-0.2-0.1-0.4 0-0.5 0.1l-0.6 0.6c-1.5 1.3-3.9 1.7-5.7 0.7-2.3-1.2-4.1-3-5.3-5.4-1-1.8-0.7-4 0.7-5.6l0.6-0.6c0 0 0.1-0.1 0.1-0.3q0-0.1-0.1-0.2l-2.6-5.2c-0.4-0.7-1.1-1.1-1.8-1.1z"/></svg>