<svg version="1.2" xmlns="http://www.w3.org/2000/svg" viewBox="0 0 24 32" width="24" height="32"><style>.a{fill:#fff}</style><path class="a" d="m22.1 18.5l-8 12.4c-0.4 0.6-1.2 1.1-2.1 1.1-0.9 0-1.7-0.5-2.1-1.1l-8-12.4c-1.2-1.9-1.9-4.1-1.9-6.5 0-6.6 5.4-12 12-12 6.6 0 12 5.4 12 12 0 2.4-0.7 4.6-1.9 6.5zm-10.1-15.5c-5 0-9 4-9 9 0 1.7 0.5 3.4 1.4 4.9l7.6 11.7 7.6-11.7c0.9-1.5 1.4-3.2 1.4-4.9 0-5-4-9-9-9zm0 14c-2.8 0-5-2.2-5-5 0-2.8 2.2-5 5-5 2.8 0 5 2.2 5 5 0 2.8-2.2 5-5 5zm0-7c-1.1 0-2 0.9-2 2 0 1.1 0.9 2 2 2 1.1 0 2-0.9 2-2 0-1.1-0.9-2-2-2z"/></svg>